solid ground station
facet normal -0.0 1.0 -0.0
  outer loop
    vertex 109.49007654246869 71.0782490059495 19.499999999999353
    vertex 121.49007654246866 71.0782490059495 0.1999999999994131
    vertex 109.49007654246869 71.0782490059495 0.1999999999994131
  endloop
endfacet
facet normal -0.0 1.0 -0.0
  outer loop
    vertex 121.49007654246866 71.0782490059495 0.1999999999994131
    vertex 109.49007654246869 71.0782490059495 19.499999999999353
    vertex 121.49007654246866 71.0782490059495 19.499999999999353
  endloop
endfacet
facet normal 0.13052619222002618 -0.9914448613738138 0.0
  outer loop
    vertex 113.99007654246856 160.57824900594946 24.499999999999392
    vertex 113.47243845226367 160.51010065852765 0.1999999999994131
    vertex 113.99007654246856 160.57824900594946 0.1999999999994131
  endloop
endfacet
facet normal 0.13052619222002618 -0.9914448613738138 0.0
  outer loop
    vertex 113.47243845226367 160.51010065852765 0.1999999999994131
    vertex 113.99007654246856 160.57824900594946 24.499999999999392
    vertex 113.47243845226367 160.51010065852765 24.499999999999392
  endloop
endfacet
facet normal -0.3826834323650834 -0.9238795325112895 0.0
  outer loop
    vertex 114.9900765424687 160.31029981351836 24.499999999999392
    vertex 114.50771463267363 160.51010065852765 0.1999999999994131
    vertex 114.9900765424687 160.31029981351836 0.1999999999994131
  endloop
endfacet
facet normal -0.3826834323650834 -0.9238795325112895 0.0
  outer loop
    vertex 114.50771463267363 160.51010065852765 0.1999999999994131
    vertex 114.9900765424687 160.31029981351836 24.499999999999392
    vertex 114.50771463267363 160.51010065852765 24.499999999999392
  endloop
endfacet
facet normal -0.7933533402910528 -0.6087614290089584 0.0
  outer loop
    vertex 115.40429010484175 159.99246256832257 24.499999999999392
    vertex 115.7221273500377 159.57824900594952 0.1999999999994131
    vertex 115.7221273500377 159.57824900594952 24.499999999999392
  endloop
endfacet
facet normal -0.7933533402910528 -0.6087614290089584 0.0
  outer loop
    vertex 115.7221273500377 159.57824900594952 0.1999999999994131
    vertex 115.40429010484175 159.99246256832257 24.499999999999392
    vertex 115.40429010484175 159.99246256832257 0.1999999999994131
  endloop
endfacet
facet normal 0.6087614290087409 -0.7933533402912198 0.0
  outer loop
    vertex 112.99007654246878 160.31029981351836 24.499999999999392
    vertex 112.57586298009574 159.99246256832257 0.1999999999994131
    vertex 112.99007654246878 160.31029981351836 0.1999999999994131
  endloop
endfacet
facet normal 0.6087614290087409 -0.7933533402912198 0.0
  outer loop
    vertex 112.57586298009574 159.99246256832257 0.1999999999994131
    vertex 112.99007654246878 160.31029981351836 24.499999999999392
    vertex 112.57586298009574 159.99246256832257 24.499999999999392
  endloop
endfacet
facet normal -0.13052619221998146 -0.9914448613738197 0.0
  outer loop
    vertex 114.50771463267363 160.51010065852765 24.499999999999392
    vertex 113.99007654246856 160.57824900594946 0.1999999999994131
    vertex 114.50771463267363 160.51010065852765 0.1999999999994131
  endloop
endfacet
facet normal -0.13052619221998146 -0.9914448613738197 0.0
  outer loop
    vertex 113.99007654246856 160.57824900594946 0.1999999999994131
    vertex 114.50771463267363 160.51010065852765 24.499999999999392
    vertex 113.99007654246856 160.57824900594946 24.499999999999392
  endloop
endfacet
facet normal -0.9238795325113864 -0.38268343236484936 0.0
  outer loop
    vertex 115.7221273500377 159.57824900594952 24.499999999999392
    vertex 115.92192819504682 159.09588709615454 0.1999999999994131
    vertex 115.92192819504682 159.09588709615454 24.499999999999392
  endloop
endfacet
facet normal -0.9238795325113864 -0.38268343236484936 0.0
  outer loop
    vertex 115.92192819504682 159.09588709615454 0.1999999999994131
    vertex 115.7221273500377 159.57824900594952 24.499999999999392
    vertex 115.7221273500377 159.57824900594952 0.1999999999994131
  endloop
endfacet
facet normal 0.3826834323652055 -0.923879532511239 0.0
  outer loop
    vertex 113.47243845226367 160.51010065852765 24.499999999999392
    vertex 112.99007654246878 160.31029981351836 0.1999999999994131
    vertex 113.47243845226367 160.51010065852765 0.1999999999994131
  endloop
endfacet
facet normal 0.3826834323652055 -0.923879532511239 0.0
  outer loop
    vertex 112.99007654246878 160.31029981351836 0.1999999999994131
    vertex 113.47243845226367 160.51010065852765 24.499999999999392
    vertex 112.99007654246878 160.31029981351836 24.499999999999392
  endloop
endfacet
facet normal -0.6087614290087409 -0.7933533402912198 0.0
  outer loop
    vertex 115.40429010484175 159.99246256832257 24.499999999999392
    vertex 114.9900765424687 160.31029981351836 0.1999999999994131
    vertex 115.40429010484175 159.99246256832257 0.1999999999994131
  endloop
endfacet
facet normal -0.6087614290087409 -0.7933533402912198 0.0
  outer loop
    vertex 114.9900765424687 160.31029981351836 0.1999999999994131
    vertex 115.40429010484175 159.99246256832257 24.499999999999392
    vertex 114.9900765424687 160.31029981351836 24.499999999999392
  endloop
endfacet
facet normal 0.9238795325113864 -0.38268343236484936 -0.0
  outer loop
    vertex 112.25802573489979 159.57824900594952 0.1999999999994131
    vertex 112.05822488989067 159.09588709615454 24.499999999999392
    vertex 112.05822488989067 159.09588709615454 0.1999999999994131
  endloop
endfacet
facet normal 0.9238795325113864 -0.38268343236484936 -0.0
  outer loop
    vertex 112.05822488989067 159.09588709615454 24.499999999999392
    vertex 112.25802573489979 159.57824900594952 0.1999999999994131
    vertex 112.25802573489979 159.57824900594952 24.499999999999392
  endloop
endfacet
facet normal -1.0 0.0 0.0
  outer loop
    vertex 106.49007654246873 163.57824900594952 24.499999999999392
    vertex 106.49007654246873 61.07824900594952 0.1999999999994131
    vertex 106.49007654246873 61.078249005949495 24.499999999999392
  endloop
endfacet
facet normal -1.0 0.0 0.0
  outer loop
    vertex 106.49007654246873 61.07824900594952 0.1999999999994131
    vertex 106.49007654246873 163.57824900594952 24.499999999999392
    vertex 106.49007654246873 163.57824900594952 0.1999999999994131
  endloop
endfacet
facet normal 0.991444861373775 -0.13052619222032122 -0.0
  outer loop
    vertex 112.05822488989067 159.09588709615454 0.1999999999994131
    vertex 111.99007654246866 158.5782490059495 24.499999999999392
    vertex 111.99007654246866 158.5782490059495 0.1999999999994131
  endloop
endfacet
facet normal 0.991444861373775 -0.13052619222032122 -0.0
  outer loop
    vertex 111.99007654246866 158.5782490059495 24.499999999999392
    vertex 112.05822488989067 159.09588709615454 0.1999999999994131
    vertex 112.05822488989067 159.09588709615454 24.499999999999392
  endloop
endfacet
facet normal 1.0 -0.0 -0.0
  outer loop
    vertex 109.49007654246869 153.57824900594954 0.1999999999994131
    vertex 109.49007654246869 71.0782490059495 19.499999999999353
    vertex 109.49007654246869 71.0782490059495 0.1999999999994131
  endloop
endfacet
facet normal 1.0 -0.0 -0.0
  outer loop
    vertex 109.49007654246869 71.0782490059495 19.499999999999353
    vertex 109.49007654246869 153.57824900594954 0.1999999999994131
    vertex 109.49007654246869 153.57824900594954 19.499999999999353
  endloop
endfacet
facet normal 0.7933533402910528 -0.6087614290089584 -0.0
  outer loop
    vertex 112.57586298009574 159.99246256832257 0.1999999999994131
    vertex 112.25802573489979 159.57824900594952 24.499999999999392
    vertex 112.25802573489979 159.57824900594952 0.1999999999994131
  endloop
endfacet
facet normal 0.7933533402910528 -0.6087614290089584 -0.0
  outer loop
    vertex 112.25802573489979 159.57824900594952 24.499999999999392
    vertex 112.57586298009574 159.99246256832257 0.1999999999994131
    vertex 112.57586298009574 159.99246256832257 24.499999999999392
  endloop
endfacet
facet normal -0.0 1.0 -0.0
  outer loop
    vertex 106.49007654246873 163.57824900594952 24.499999999999392
    vertex 121.49007654246866 163.57824900594952 0.1999999999994131
    vertex 106.49007654246873 163.57824900594952 0.1999999999994131
  endloop
endfacet
facet normal -0.0 1.0 -0.0
  outer loop
    vertex 121.49007654246866 163.57824900594952 0.1999999999994131
    vertex 106.49007654246873 163.57824900594952 24.499999999999392
    vertex 121.49007654246866 163.57824900594952 24.499999999999392
  endloop
endfacet
facet normal 1.0 -0.0 -0.0
  outer loop
    vertex 121.49007654246866 163.57824900594952 0.1999999999994131
    vertex 121.49007654246866 153.57824900594954 19.499999999999353
    vertex 121.49007654246866 153.57824900594954 0.1999999999994131
  endloop
endfacet
facet normal 1.0 -0.0 -0.0
  outer loop
    vertex 121.49007654246866 61.078249005949495 24.499999999999392
    vertex 121.49007654246866 71.0782490059495 19.499999999999353
    vertex 121.49007654246866 163.57824900594952 24.499999999999392
  endloop
endfacet
facet normal 1.0 -0.0 -0.0
  outer loop
    vertex 121.49007654246866 71.0782490059495 19.499999999999353
    vertex 121.49007654246866 61.078249005949495 24.499999999999392
    vertex 121.49007654246866 61.07824900594952 0.1999999999994131
  endloop
endfacet
facet normal 1.0 -0.0 -0.0
  outer loop
    vertex 121.49007654246866 71.0782490059495 19.499999999999353
    vertex 121.49007654246866 61.07824900594952 0.1999999999994131
    vertex 121.49007654246866 71.0782490059495 0.1999999999994131
  endloop
endfacet
facet normal 1.0 -0.0 -0.0
  outer loop
    vertex 121.49007654246866 163.57824900594952 24.499999999999392
    vertex 121.49007654246866 71.0782490059495 19.499999999999353
    vertex 121.49007654246866 153.57824900594954 19.499999999999353
  endloop
endfacet
facet normal 1.0 -0.0 -0.0
  outer loop
    vertex 121.49007654246866 163.57824900594952 24.499999999999392
    vertex 121.49007654246866 153.57824900594954 19.499999999999353
    vertex 121.49007654246866 163.57824900594952 0.1999999999994131
  endloop
endfacet
facet normal 0.0 -1.0 -9.283840271762635e-16
  outer loop
    vertex 121.49007654246866 61.078249005949495 24.499999999999392
    vertex 106.49007654246873 61.07824900594952 0.1999999999994131
    vertex 121.49007654246866 61.07824900594952 0.1999999999994131
  endloop
endfacet
facet normal 0.0 -1.0 -9.283840271762635e-16
  outer loop
    vertex 106.49007654246873 61.07824900594952 0.1999999999994131
    vertex 121.49007654246866 61.078249005949495 24.499999999999392
    vertex 106.49007654246873 61.078249005949495 24.499999999999392
  endloop
endfacet
facet normal 0.0 0.0 -1.0
  outer loop
    vertex 121.49007654246866 153.57824900594954 19.499999999999353
    vertex 109.49007654246869 71.0782490059495 19.499999999999353
    vertex 109.49007654246869 153.57824900594954 19.499999999999353
  endloop
endfacet
facet normal 0.0 0.0 -1.0
  outer loop
    vertex 109.49007654246869 71.0782490059495 19.499999999999353
    vertex 121.49007654246866 153.57824900594954 19.499999999999353
    vertex 121.49007654246866 71.0782490059495 19.499999999999353
  endloop
endfacet
facet normal 0.13052619222006867 -0.9914448613738082 0.0
  outer loop
    vertex 113.99007654246856 68.0782490059495 24.499999999999392
    vertex 113.47243845226367 68.01010065852766 0.1999999999994131
    vertex 113.99007654246856 68.0782490059495 0.1999999999994131
  endloop
endfacet
facet normal 0.13052619222006867 -0.9914448613738082 0.0
  outer loop
    vertex 113.47243845226367 68.01010065852766 0.1999999999994131
    vertex 113.99007654246856 68.0782490059495 24.499999999999392
    vertex 113.47243845226367 68.01010065852766 24.499999999999392
  endloop
endfacet
facet normal 0.6087614290087409 -0.7933533402912198 0.0
  outer loop
    vertex 112.99007654246878 67.81029981351838 24.499999999999392
    vertex 112.57586298009574 67.49246256832261 0.1999999999994131
    vertex 112.99007654246878 67.81029981351838 0.1999999999994131
  endloop
endfacet
facet normal 0.6087614290087409 -0.7933533402912198 0.0
  outer loop
    vertex 112.57586298009574 67.49246256832261 0.1999999999994131
    vertex 112.99007654246878 67.81029981351838 24.499999999999392
    vertex 112.57586298009574 67.49246256832261 24.499999999999392
  endloop
endfacet
facet normal 0.3826834323651686 -0.9238795325112541 0.0
  outer loop
    vertex 113.47243845226367 68.01010065852766 24.499999999999392
    vertex 112.99007654246878 67.81029981351838 0.1999999999994131
    vertex 113.47243845226367 68.01010065852766 0.1999999999994131
  endloop
endfacet
facet normal 0.3826834323651686 -0.9238795325112541 0.0
  outer loop
    vertex 112.99007654246878 67.81029981351838 0.1999999999994131
    vertex 113.47243845226367 68.01010065852766 24.499999999999392
    vertex 112.99007654246878 67.81029981351838 24.499999999999392
  endloop
endfacet
facet normal -0.1305261922200664 -0.9914448613738086 0.0
  outer loop
    vertex 114.50771463267363 68.01010065852763 24.499999999999392
    vertex 113.99007654246856 68.0782490059495 0.1999999999994131
    vertex 114.50771463267363 68.01010065852763 0.1999999999994131
  endloop
endfacet
facet normal -0.1305261922200664 -0.9914448613738086 0.0
  outer loop
    vertex 113.99007654246856 68.0782490059495 0.1999999999994131
    vertex 114.50771463267363 68.01010065852763 24.499999999999392
    vertex 113.99007654246856 68.0782490059495 24.499999999999392
  endloop
endfacet
facet normal 0.9914448613737734 0.1305261922203324 -0.0
  outer loop
    vertex 111.99007654246866 158.5782490059495 0.1999999999994131
    vertex 112.05822488989067 158.06061091574446 24.499999999999392
    vertex 112.05822488989067 158.06061091574446 0.1999999999994131
  endloop
endfacet
facet normal 0.9914448613737734 0.1305261922203324 -0.0
  outer loop
    vertex 112.05822488989067 158.06061091574446 24.499999999999392
    vertex 111.99007654246866 158.5782490059495 0.1999999999994131
    vertex 111.99007654246866 158.5782490059495 24.499999999999392
  endloop
endfacet
facet normal 0.6087614290087409 0.7933533402912198 -0.0
  outer loop
    vertex 112.57586298009574 157.16403544357638 24.499999999999392
    vertex 112.99007654246878 156.84619819838062 0.1999999999994131
    vertex 112.57586298009574 157.16403544357638 0.1999999999994131
  endloop
endfacet
facet normal 0.6087614290087409 0.7933533402912198 -0.0
  outer loop
    vertex 112.99007654246878 156.84619819838062 0.1999999999994131
    vertex 112.57586298009574 157.16403544357638 24.499999999999392
    vertex 112.99007654246878 156.84619819838062 24.499999999999392
  endloop
endfacet
facet normal -0.9914448613737734 0.1305261922203324 0.0
  outer loop
    vertex 115.99007654246883 158.5782490059495 24.499999999999392
    vertex 115.92192819504682 158.06061091574446 0.1999999999994131
    vertex 115.92192819504682 158.06061091574446 24.499999999999392
  endloop
endfacet
facet normal -0.9914448613737734 0.1305261922203324 0.0
  outer loop
    vertex 115.92192819504682 158.06061091574446 0.1999999999994131
    vertex 115.99007654246883 158.5782490059495 24.499999999999392
    vertex 115.99007654246883 158.5782490059495 0.1999999999994131
  endloop
endfacet
facet normal 0.9238795325113737 0.3826834323648799 -0.0
  outer loop
    vertex 112.05822488989067 158.06061091574446 0.1999999999994131
    vertex 112.25802573489979 157.57824900594952 24.499999999999392
    vertex 112.25802573489979 157.57824900594952 0.1999999999994131
  endloop
endfacet
facet normal 0.9238795325113737 0.3826834323648799 -0.0
  outer loop
    vertex 112.25802573489979 157.57824900594952 24.499999999999392
    vertex 112.05822488989067 158.06061091574446 0.1999999999994131
    vertex 112.05822488989067 158.06061091574446 24.499999999999392
  endloop
endfacet
facet normal 0.13052619222011114 0.9914448613738026 -0.0
  outer loop
    vertex 113.47243845226367 156.64639735337136 24.499999999999392
    vertex 113.99007654246856 156.5782490059495 0.1999999999994131
    vertex 113.47243845226367 156.64639735337136 0.1999999999994131
  endloop
endfacet
facet normal 0.13052619222011114 0.9914448613738026 -0.0
  outer loop
    vertex 113.99007654246856 156.5782490059495 0.1999999999994131
    vertex 113.47243845226367 156.64639735337136 24.499999999999392
    vertex 113.99007654246856 156.5782490059495 24.499999999999392
  endloop
endfacet
facet normal 0.38268343236513175 0.9238795325112694 -0.0
  outer loop
    vertex 112.99007654246878 156.84619819838062 24.499999999999392
    vertex 113.47243845226367 156.64639735337136 0.1999999999994131
    vertex 112.99007654246878 156.84619819838062 0.1999999999994131
  endloop
endfacet
facet normal 0.38268343236513175 0.9238795325112694 -0.0
  outer loop
    vertex 113.47243845226367 156.64639735337136 0.1999999999994131
    vertex 112.99007654246878 156.84619819838062 24.499999999999392
    vertex 113.47243845226367 156.64639735337136 24.499999999999392
  endloop
endfacet
facet normal 0.7933533402911169 0.608761429008875 -0.0
  outer loop
    vertex 112.25802573489979 157.57824900594952 0.1999999999994131
    vertex 112.57586298009574 157.16403544357638 24.499999999999392
    vertex 112.57586298009574 157.16403544357638 0.1999999999994131
  endloop
endfacet
facet normal 0.7933533402911169 0.608761429008875 -0.0
  outer loop
    vertex 112.57586298009574 157.16403544357638 24.499999999999392
    vertex 112.25802573489979 157.57824900594952 0.1999999999994131
    vertex 112.25802573489979 157.57824900594952 24.499999999999392
  endloop
endfacet
facet normal -0.3826834323650095 0.92387953251132 -0.0
  outer loop
    vertex 114.50771463267363 64.14639735337137 24.499999999999392
    vertex 114.9900765424687 64.34619819838062 0.1999999999994131
    vertex 114.50771463267363 64.14639735337137 0.1999999999994131
  endloop
endfacet
facet normal -0.3826834323650095 0.92387953251132 -0.0
  outer loop
    vertex 114.9900765424687 64.34619819838062 0.1999999999994131
    vertex 114.50771463267363 64.14639735337137 24.499999999999392
    vertex 114.9900765424687 64.34619819838062 24.499999999999392
  endloop
endfacet
facet normal -0.6087614290087409 0.7933533402912198 -0.0
  outer loop
    vertex 114.9900765424687 156.84619819838062 24.499999999999392
    vertex 115.40429010484175 157.16403544357638 0.1999999999994131
    vertex 114.9900765424687 156.84619819838062 0.1999999999994131
  endloop
endfacet
facet normal -0.6087614290087409 0.7933533402912198 -0.0
  outer loop
    vertex 115.40429010484175 157.16403544357638 0.1999999999994131
    vertex 114.9900765424687 156.84619819838062 24.499999999999392
    vertex 115.40429010484175 157.16403544357638 24.499999999999392
  endloop
endfacet
facet normal -0.7933533402911169 0.608761429008875 0.0
  outer loop
    vertex 115.7221273500377 157.57824900594952 24.499999999999392
    vertex 115.40429010484175 157.16403544357638 0.1999999999994131
    vertex 115.40429010484175 157.16403544357638 24.499999999999392
  endloop
endfacet
facet normal -0.7933533402911169 0.608761429008875 0.0
  outer loop
    vertex 115.40429010484175 157.16403544357638 0.1999999999994131
    vertex 115.7221273500377 157.57824900594952 24.499999999999392
    vertex 115.7221273500377 157.57824900594952 0.1999999999994131
  endloop
endfacet
facet normal -0.991444861373775 -0.13052619222032122 0.0
  outer loop
    vertex 115.92192819504682 159.09588709615454 24.499999999999392
    vertex 115.99007654246883 158.5782490059495 0.1999999999994131
    vertex 115.99007654246883 158.5782490059495 24.499999999999392
  endloop
endfacet
facet normal -0.991444861373775 -0.13052619222032122 0.0
  outer loop
    vertex 115.99007654246883 158.5782490059495 0.1999999999994131
    vertex 115.92192819504682 159.09588709615454 24.499999999999392
    vertex 115.92192819504682 159.09588709615454 0.1999999999994131
  endloop
endfacet
facet normal -0.3826834323650096 0.92387953251132 -0.0
  outer loop
    vertex 114.50771463267363 156.64639735337136 24.499999999999392
    vertex 114.9900765424687 156.84619819838062 0.1999999999994131
    vertex 114.50771463267363 156.64639735337136 0.1999999999994131
  endloop
endfacet
facet normal -0.3826834323650096 0.92387953251132 -0.0
  outer loop
    vertex 114.9900765424687 156.84619819838062 0.1999999999994131
    vertex 114.50771463267363 156.64639735337136 24.499999999999392
    vertex 114.9900765424687 156.84619819838062 24.499999999999392
  endloop
endfacet
facet normal -0.1305261922200664 0.9914448613738086 -0.0
  outer loop
    vertex 113.99007654246856 156.5782490059495 24.499999999999392
    vertex 114.50771463267363 156.64639735337136 0.1999999999994131
    vertex 113.99007654246856 156.5782490059495 0.1999999999994131
  endloop
endfacet
facet normal -0.1305261922200664 0.9914448613738086 -0.0
  outer loop
    vertex 114.50771463267363 156.64639735337136 0.1999999999994131
    vertex 113.99007654246856 156.5782490059495 24.499999999999392
    vertex 114.50771463267363 156.64639735337136 24.499999999999392
  endloop
endfacet
facet normal -0.9238795325113737 0.3826834323648799 0.0
  outer loop
    vertex 115.92192819504682 158.06061091574446 24.499999999999392
    vertex 115.7221273500377 157.57824900594952 0.1999999999994131
    vertex 115.7221273500377 157.57824900594952 24.499999999999392
  endloop
endfacet
facet normal -0.9238795325113737 0.3826834323648799 0.0
  outer loop
    vertex 115.7221273500377 157.57824900594952 0.1999999999994131
    vertex 115.92192819504682 158.06061091574446 24.499999999999392
    vertex 115.92192819504682 158.06061091574446 0.1999999999994131
  endloop
endfacet
facet normal -0.6087614290087409 -0.7933533402912198 0.0
  outer loop
    vertex 115.40429010484175 67.49246256832261 24.499999999999392
    vertex 114.9900765424687 67.81029981351838 0.1999999999994131
    vertex 115.40429010484175 67.49246256832261 0.1999999999994131
  endloop
endfacet
facet normal -0.6087614290087409 -0.7933533402912198 0.0
  outer loop
    vertex 114.9900765424687 67.81029981351838 0.1999999999994131
    vertex 115.40429010484175 67.49246256832261 24.499999999999392
    vertex 114.9900765424687 67.81029981351838 24.499999999999392
  endloop
endfacet
facet normal 0.9238795325113802 -0.3826834323648647 -0.0
  outer loop
    vertex 112.25802573489979 67.07824900594952 0.1999999999994131
    vertex 112.05822488989067 66.59588709615456 24.499999999999392
    vertex 112.05822488989067 66.59588709615456 0.1999999999994131
  endloop
endfacet
facet normal 0.9238795325113802 -0.3826834323648647 -0.0
  outer loop
    vertex 112.05822488989067 66.59588709615456 24.499999999999392
    vertex 112.25802573489979 67.07824900594952 0.1999999999994131
    vertex 112.25802573489979 67.07824900594952 24.499999999999392
  endloop
endfacet
facet normal -0.9238795325113802 0.3826834323648647 0.0
  outer loop
    vertex 115.92192819504682 65.56061091574446 24.499999999999392
    vertex 115.7221273500377 65.07824900594952 0.1999999999994131
    vertex 115.7221273500377 65.07824900594952 24.499999999999392
  endloop
endfacet
facet normal -0.9238795325113802 0.3826834323648647 0.0
  outer loop
    vertex 115.7221273500377 65.07824900594952 0.1999999999994131
    vertex 115.92192819504682 65.56061091574446 24.499999999999392
    vertex 115.92192819504682 65.56061091574446 0.1999999999994131
  endloop
endfacet
facet normal -0.9238795325113802 -0.3826834323648647 0.0
  outer loop
    vertex 115.7221273500377 67.07824900594952 24.499999999999392
    vertex 115.92192819504682 66.59588709615456 0.1999999999994131
    vertex 115.92192819504682 66.59588709615456 24.499999999999392
  endloop
endfacet
facet normal -0.9238795325113802 -0.3826834323648647 0.0
  outer loop
    vertex 115.92192819504682 66.59588709615456 0.1999999999994131
    vertex 115.7221273500377 67.07824900594952 24.499999999999392
    vertex 115.7221273500377 67.07824900594952 0.1999999999994131
  endloop
endfacet
facet normal 0.9914448613737743 -0.13052619222032685 -0.0
  outer loop
    vertex 112.05822488989067 66.59588709615456 0.1999999999994131
    vertex 111.99007654246866 66.07824900594952 24.499999999999392
    vertex 111.99007654246866 66.07824900594952 0.1999999999994131
  endloop
endfacet
facet normal 0.9914448613737743 -0.13052619222032685 -0.0
  outer loop
    vertex 111.99007654246866 66.07824900594952 24.499999999999392
    vertex 112.05822488989067 66.59588709615456 0.1999999999994131
    vertex 112.05822488989067 66.59588709615456 24.499999999999392
  endloop
endfacet
facet normal -0.7933533402910848 0.6087614290089166 0.0
  outer loop
    vertex 115.7221273500377 65.07824900594952 24.499999999999392
    vertex 115.40429010484175 64.66403544357641 0.1999999999994131
    vertex 115.40429010484175 64.66403544357641 24.499999999999392
  endloop
endfacet
facet normal -0.7933533402910848 0.6087614290089166 0.0
  outer loop
    vertex 115.40429010484175 64.66403544357641 0.1999999999994131
    vertex 115.7221273500377 65.07824900594952 24.499999999999392
    vertex 115.7221273500377 65.07824900594952 0.1999999999994131
  endloop
endfacet
facet normal 0.38268343236513175 0.9238795325112694 -0.0
  outer loop
    vertex 112.99007654246878 64.34619819838062 24.499999999999392
    vertex 113.47243845226367 64.14639735337137 0.1999999999994131
    vertex 112.99007654246878 64.34619819838062 0.1999999999994131
  endloop
endfacet
facet normal 0.38268343236513175 0.9238795325112694 -0.0
  outer loop
    vertex 113.47243845226367 64.14639735337137 0.1999999999994131
    vertex 112.99007654246878 64.34619819838062 24.499999999999392
    vertex 113.47243845226367 64.14639735337137 24.499999999999392
  endloop
endfacet
facet normal 0.7933533402910848 -0.6087614290089166 -0.0
  outer loop
    vertex 112.57586298009574 67.49246256832261 0.1999999999994131
    vertex 112.25802573489979 67.07824900594952 24.499999999999392
    vertex 112.25802573489979 67.07824900594952 0.1999999999994131
  endloop
endfacet
facet normal 0.7933533402910848 -0.6087614290089166 -0.0
  outer loop
    vertex 112.25802573489979 67.07824900594952 24.499999999999392
    vertex 112.57586298009574 67.49246256832261 0.1999999999994131
    vertex 112.57586298009574 67.49246256832261 24.499999999999392
  endloop
endfacet
facet normal 0.9914448613737743 0.13052619222032685 -0.0
  outer loop
    vertex 111.99007654246866 66.07824900594952 0.1999999999994131
    vertex 112.05822488989067 65.56061091574446 24.499999999999392
    vertex 112.05822488989067 65.56061091574446 0.1999999999994131
  endloop
endfacet
facet normal 0.9914448613737743 0.13052619222032685 -0.0
  outer loop
    vertex 112.05822488989067 65.56061091574446 24.499999999999392
    vertex 111.99007654246866 66.07824900594952 0.1999999999994131
    vertex 111.99007654246866 66.07824900594952 24.499999999999392
  endloop
endfacet
facet normal -0.1305261922200239 0.991444861373814 -0.0
  outer loop
    vertex 113.99007654246856 64.07824900594952 24.499999999999392
    vertex 114.50771463267363 64.14639735337137 0.1999999999994131
    vertex 113.99007654246856 64.07824900594952 0.1999999999994131
  endloop
endfacet
facet normal -0.1305261922200239 0.991444861373814 -0.0
  outer loop
    vertex 114.50771463267363 64.14639735337137 0.1999999999994131
    vertex 113.99007654246856 64.07824900594952 24.499999999999392
    vertex 114.50771463267363 64.14639735337137 24.499999999999392
  endloop
endfacet
facet normal 0.13052619222006867 0.9914448613738082 -0.0
  outer loop
    vertex 113.47243845226367 64.14639735337137 24.499999999999392
    vertex 113.99007654246856 64.07824900594952 0.1999999999994131
    vertex 113.47243845226367 64.14639735337137 0.1999999999994131
  endloop
endfacet
facet normal 0.13052619222006867 0.9914448613738082 -0.0
  outer loop
    vertex 113.99007654246856 64.07824900594952 0.1999999999994131
    vertex 113.47243845226367 64.14639735337137 24.499999999999392
    vertex 113.99007654246856 64.07824900594952 24.499999999999392
  endloop
endfacet
facet normal 0.6087614290087953 0.793353340291178 -0.0
  outer loop
    vertex 112.57586298009574 64.66403544357644 24.499999999999392
    vertex 112.99007654246878 64.34619819838062 0.1999999999994131
    vertex 112.57586298009574 64.66403544357644 0.1999999999994131
  endloop
endfacet
facet normal 0.6087614290087953 0.793353340291178 -0.0
  outer loop
    vertex 112.99007654246878 64.34619819838062 0.1999999999994131
    vertex 112.57586298009574 64.66403544357644 24.499999999999392
    vertex 112.99007654246878 64.34619819838062 24.499999999999392
  endloop
endfacet
facet normal -0.9914448613737743 0.13052619222032685 0.0
  outer loop
    vertex 115.99007654246883 66.07824900594952 24.499999999999392
    vertex 115.92192819504682 65.56061091574446 0.1999999999994131
    vertex 115.92192819504682 65.56061091574446 24.499999999999392
  endloop
endfacet
facet normal -0.9914448613737743 0.13052619222032685 0.0
  outer loop
    vertex 115.92192819504682 65.56061091574446 0.1999999999994131
    vertex 115.99007654246883 66.07824900594952 24.499999999999392
    vertex 115.99007654246883 66.07824900594952 0.1999999999994131
  endloop
endfacet
facet normal -0.9914448613737743 -0.13052619222032685 0.0
  outer loop
    vertex 115.92192819504682 66.59588709615456 24.499999999999392
    vertex 115.99007654246883 66.07824900594952 0.1999999999994131
    vertex 115.99007654246883 66.07824900594952 24.499999999999392
  endloop
endfacet
facet normal -0.9914448613737743 -0.13052619222032685 0.0
  outer loop
    vertex 115.99007654246883 66.07824900594952 0.1999999999994131
    vertex 115.92192819504682 66.59588709615456 24.499999999999392
    vertex 115.92192819504682 66.59588709615456 0.1999999999994131
  endloop
endfacet
facet normal -0.6087614290087681 0.7933533402911987 -0.0
  outer loop
    vertex 114.9900765424687 64.34619819838062 24.499999999999392
    vertex 115.40429010484175 64.66403544357641 0.1999999999994131
    vertex 114.9900765424687 64.34619819838062 0.1999999999994131
  endloop
endfacet
facet normal -0.6087614290087681 0.7933533402911987 -0.0
  outer loop
    vertex 115.40429010484175 64.66403544357641 0.1999999999994131
    vertex 114.9900765424687 64.34619819838062 24.499999999999392
    vertex 115.40429010484175 64.66403544357641 24.499999999999392
  endloop
endfacet
facet normal 0.9238795325113802 0.3826834323648647 -0.0
  outer loop
    vertex 112.05822488989067 65.56061091574446 0.1999999999994131
    vertex 112.25802573489979 65.07824900594952 24.499999999999392
    vertex 112.25802573489979 65.07824900594952 0.1999999999994131
  endloop
endfacet
facet normal 0.9238795325113802 0.3826834323648647 -0.0
  outer loop
    vertex 112.25802573489979 65.07824900594952 24.499999999999392
    vertex 112.05822488989067 65.56061091574446 0.1999999999994131
    vertex 112.05822488989067 65.56061091574446 24.499999999999392
  endloop
endfacet
facet normal 0.7933533402910689 0.6087614290089375 -0.0
  outer loop
    vertex 112.25802573489979 65.07824900594952 0.1999999999994131
    vertex 112.57586298009574 64.66403544357644 24.499999999999392
    vertex 112.57586298009574 64.66403544357644 0.1999999999994131
  endloop
endfacet
facet normal 0.7933533402910689 0.6087614290089375 -0.0
  outer loop
    vertex 112.57586298009574 64.66403544357644 24.499999999999392
    vertex 112.25802573489979 65.07824900594952 0.1999999999994131
    vertex 112.25802573489979 65.07824900594952 24.499999999999392
  endloop
endfacet
facet normal -0.3826834323650095 -0.92387953251132 0.0
  outer loop
    vertex 114.9900765424687 67.81029981351838 24.499999999999392
    vertex 114.50771463267363 68.01010065852763 0.1999999999994131
    vertex 114.9900765424687 67.81029981351838 0.1999999999994131
  endloop
endfacet
facet normal -0.3826834323650095 -0.92387953251132 0.0
  outer loop
    vertex 114.50771463267363 68.01010065852763 0.1999999999994131
    vertex 114.9900765424687 67.81029981351838 24.499999999999392
    vertex 114.50771463267363 68.01010065852763 24.499999999999392
  endloop
endfacet
facet normal -0.7933533402910848 -0.6087614290089166 0.0
  outer loop
    vertex 115.40429010484175 67.49246256832261 24.499999999999392
    vertex 115.7221273500377 67.07824900594952 0.1999999999994131
    vertex 115.7221273500377 67.07824900594952 24.499999999999392
  endloop
endfacet
facet normal -0.7933533402910848 -0.6087614290089166 0.0
  outer loop
    vertex 115.7221273500377 67.07824900594952 0.1999999999994131
    vertex 115.40429010484175 67.49246256832261 24.499999999999392
    vertex 115.40429010484175 67.49246256832261 0.1999999999994131
  endloop
endfacet
facet normal 0.0 0.0 -1.0
  outer loop
    vertex 106.49007654246873 163.57824900594952 0.1999999999994131
    vertex 109.49007654246869 153.57824900594954 0.1999999999994131
    vertex 106.49007654246873 61.07824900594952 0.1999999999994131
  endloop
endfacet
facet normal 0.0 0.0 -1.0
  outer loop
    vertex 109.49007654246869 153.57824900594954 0.1999999999994131
    vertex 106.49007654246873 163.57824900594952 0.1999999999994131
    vertex 112.25802573489979 159.57824900594952 0.1999999999994131
  endloop
endfacet
facet normal 0.0 0.0 -1.0
  outer loop
    vertex 112.25802573489979 159.57824900594952 0.1999999999994131
    vertex 106.49007654246873 163.57824900594952 0.1999999999994131
    vertex 112.57586298009574 159.99246256832257 0.1999999999994131
  endloop
endfacet
facet normal 0.0 0.0 -1.0
  outer loop
    vertex 112.57586298009574 159.99246256832257 0.1999999999994131
    vertex 106.49007654246873 163.57824900594952 0.1999999999994131
    vertex 112.99007654246878 160.31029981351836 0.1999999999994131
  endloop
endfacet
facet normal 0.0 0.0 -1.0
  outer loop
    vertex 112.99007654246878 160.31029981351836 0.1999999999994131
    vertex 106.49007654246873 163.57824900594952 0.1999999999994131
    vertex 113.47243845226367 160.51010065852765 0.1999999999994131
  endloop
endfacet
facet normal 0.0 0.0 -1.0
  outer loop
    vertex 113.47243845226367 160.51010065852765 0.1999999999994131
    vertex 106.49007654246873 163.57824900594952 0.1999999999994131
    vertex 121.49007654246866 163.57824900594952 0.1999999999994131
  endloop
endfacet
facet normal 0.0 0.0 -1.0
  outer loop
    vertex 109.49007654246869 153.57824900594954 0.1999999999994131
    vertex 112.25802573489979 159.57824900594952 0.1999999999994131
    vertex 112.05822488989067 159.09588709615454 0.1999999999994131
  endloop
endfacet
facet normal 0.0 0.0 -1.0
  outer loop
    vertex 109.49007654246869 153.57824900594954 0.1999999999994131
    vertex 112.05822488989067 159.09588709615454 0.1999999999994131
    vertex 111.99007654246866 158.5782490059495 0.1999999999994131
  endloop
endfacet
facet normal 0.0 0.0 -1.0
  outer loop
    vertex 113.47243845226367 160.51010065852765 0.1999999999994131
    vertex 121.49007654246866 163.57824900594952 0.1999999999994131
    vertex 113.99007654246856 160.57824900594946 0.1999999999994131
  endloop
endfacet
facet normal 0.0 0.0 -1.0
  outer loop
    vertex 113.99007654246856 160.57824900594946 0.1999999999994131
    vertex 121.49007654246866 163.57824900594952 0.1999999999994131
    vertex 114.50771463267363 160.51010065852765 0.1999999999994131
  endloop
endfacet
facet normal 0.0 0.0 -1.0
  outer loop
    vertex 114.50771463267363 160.51010065852765 0.1999999999994131
    vertex 121.49007654246866 163.57824900594952 0.1999999999994131
    vertex 114.9900765424687 160.31029981351836 0.1999999999994131
  endloop
endfacet
facet normal 0.0 0.0 -1.0
  outer loop
    vertex 114.9900765424687 160.31029981351836 0.1999999999994131
    vertex 121.49007654246866 163.57824900594952 0.1999999999994131
    vertex 115.40429010484175 159.99246256832257 0.1999999999994131
  endloop
endfacet
facet normal 0.0 0.0 -1.0
  outer loop
    vertex 115.40429010484175 159.99246256832257 0.1999999999994131
    vertex 121.49007654246866 163.57824900594952 0.1999999999994131
    vertex 115.7221273500377 159.57824900594952 0.1999999999994131
  endloop
endfacet
facet normal 0.0 0.0 -1.0
  outer loop
    vertex 115.7221273500377 159.57824900594952 0.1999999999994131
    vertex 121.49007654246866 163.57824900594952 0.1999999999994131
    vertex 115.92192819504682 159.09588709615454 0.1999999999994131
  endloop
endfacet
facet normal 0.0 0.0 -1.0
  outer loop
    vertex 115.92192819504682 159.09588709615454 0.1999999999994131
    vertex 121.49007654246866 163.57824900594952 0.1999999999994131
    vertex 115.99007654246883 158.5782490059495 0.1999999999994131
  endloop
endfacet
facet normal 0.0 0.0 -1.0
  outer loop
    vertex 109.49007654246869 153.57824900594954 0.1999999999994131
    vertex 113.47243845226367 156.64639735337136 0.1999999999994131
    vertex 121.49007654246866 153.57824900594954 0.1999999999994131
  endloop
endfacet
facet normal 0.0 0.0 -1.0
  outer loop
    vertex 113.47243845226367 156.64639735337136 0.1999999999994131
    vertex 109.49007654246869 153.57824900594954 0.1999999999994131
    vertex 112.99007654246878 156.84619819838062 0.1999999999994131
  endloop
endfacet
facet normal 0.0 0.0 -1.0
  outer loop
    vertex 112.99007654246878 156.84619819838062 0.1999999999994131
    vertex 109.49007654246869 153.57824900594954 0.1999999999994131
    vertex 112.57586298009574 157.16403544357638 0.1999999999994131
  endloop
endfacet
facet normal 0.0 0.0 -1.0
  outer loop
    vertex 112.57586298009574 157.16403544357638 0.1999999999994131
    vertex 109.49007654246869 153.57824900594954 0.1999999999994131
    vertex 112.25802573489979 157.57824900594952 0.1999999999994131
  endloop
endfacet
facet normal 0.0 0.0 -1.0
  outer loop
    vertex 112.25802573489979 157.57824900594952 0.1999999999994131
    vertex 109.49007654246869 153.57824900594954 0.1999999999994131
    vertex 112.05822488989067 158.06061091574446 0.1999999999994131
  endloop
endfacet
facet normal 0.0 0.0 -1.0
  outer loop
    vertex 112.05822488989067 158.06061091574446 0.1999999999994131
    vertex 109.49007654246869 153.57824900594954 0.1999999999994131
    vertex 111.99007654246866 158.5782490059495 0.1999999999994131
  endloop
endfacet
facet normal 0.0 0.0 -1.0
  outer loop
    vertex 121.49007654246866 153.57824900594954 0.1999999999994131
    vertex 113.47243845226367 156.64639735337136 0.1999999999994131
    vertex 113.99007654246856 156.5782490059495 0.1999999999994131
  endloop
endfacet
facet normal 0.0 0.0 -1.0
  outer loop
    vertex 121.49007654246866 153.57824900594954 0.1999999999994131
    vertex 113.99007654246856 156.5782490059495 0.1999999999994131
    vertex 114.50771463267363 156.64639735337136 0.1999999999994131
  endloop
endfacet
facet normal 0.0 0.0 -1.0
  outer loop
    vertex 121.49007654246866 153.57824900594954 0.1999999999994131
    vertex 114.50771463267363 156.64639735337136 0.1999999999994131
    vertex 114.9900765424687 156.84619819838062 0.1999999999994131
  endloop
endfacet
facet normal 0.0 0.0 -1.0
  outer loop
    vertex 121.49007654246866 153.57824900594954 0.1999999999994131
    vertex 114.9900765424687 156.84619819838062 0.1999999999994131
    vertex 115.40429010484175 157.16403544357638 0.1999999999994131
  endloop
endfacet
facet normal 0.0 0.0 -1.0
  outer loop
    vertex 121.49007654246866 153.57824900594954 0.1999999999994131
    vertex 115.40429010484175 157.16403544357638 0.1999999999994131
    vertex 115.7221273500377 157.57824900594952 0.1999999999994131
  endloop
endfacet
facet normal 0.0 0.0 -1.0
  outer loop
    vertex 121.49007654246866 153.57824900594954 0.1999999999994131
    vertex 115.7221273500377 157.57824900594952 0.1999999999994131
    vertex 115.92192819504682 158.06061091574446 0.1999999999994131
  endloop
endfacet
facet normal 0.0 0.0 -1.0
  outer loop
    vertex 121.49007654246866 153.57824900594954 0.1999999999994131
    vertex 115.92192819504682 158.06061091574446 0.1999999999994131
    vertex 115.99007654246883 158.5782490059495 0.1999999999994131
  endloop
endfacet
facet normal 0.0 0.0 -1.0
  outer loop
    vertex 121.49007654246866 153.57824900594954 0.1999999999994131
    vertex 115.99007654246883 158.5782490059495 0.1999999999994131
    vertex 121.49007654246866 163.57824900594952 0.1999999999994131
  endloop
endfacet
facet normal 0.0 0.0 -1.0
  outer loop
    vertex 109.49007654246869 71.0782490059495 0.1999999999994131
    vertex 112.05822488989067 66.59588709615456 0.1999999999994131
    vertex 111.99007654246866 66.07824900594952 0.1999999999994131
  endloop
endfacet
facet normal 0.0 0.0 -1.0
  outer loop
    vertex 112.05822488989067 66.59588709615456 0.1999999999994131
    vertex 109.49007654246869 71.0782490059495 0.1999999999994131
    vertex 112.25802573489979 67.07824900594952 0.1999999999994131
  endloop
endfacet
facet normal 0.0 0.0 -1.0
  outer loop
    vertex 112.25802573489979 67.07824900594952 0.1999999999994131
    vertex 109.49007654246869 71.0782490059495 0.1999999999994131
    vertex 112.57586298009574 67.49246256832261 0.1999999999994131
  endloop
endfacet
facet normal 0.0 0.0 -1.0
  outer loop
    vertex 112.57586298009574 67.49246256832261 0.1999999999994131
    vertex 109.49007654246869 71.0782490059495 0.1999999999994131
    vertex 112.99007654246878 67.81029981351838 0.1999999999994131
  endloop
endfacet
facet normal 0.0 0.0 -1.0
  outer loop
    vertex 112.99007654246878 67.81029981351838 0.1999999999994131
    vertex 109.49007654246869 71.0782490059495 0.1999999999994131
    vertex 113.47243845226367 68.01010065852766 0.1999999999994131
  endloop
endfacet
facet normal 0.0 0.0 -1.0
  outer loop
    vertex 113.47243845226367 68.01010065852766 0.1999999999994131
    vertex 109.49007654246869 71.0782490059495 0.1999999999994131
    vertex 121.49007654246866 71.0782490059495 0.1999999999994131
  endloop
endfacet
facet normal 0.0 0.0 -1.0
  outer loop
    vertex 113.47243845226367 68.01010065852766 0.1999999999994131
    vertex 121.49007654246866 71.0782490059495 0.1999999999994131
    vertex 113.99007654246856 68.0782490059495 0.1999999999994131
  endloop
endfacet
facet normal 0.0 0.0 -1.0
  outer loop
    vertex 113.99007654246856 68.0782490059495 0.1999999999994131
    vertex 121.49007654246866 71.0782490059495 0.1999999999994131
    vertex 114.50771463267363 68.01010065852763 0.1999999999994131
  endloop
endfacet
facet normal 0.0 0.0 -1.0
  outer loop
    vertex 114.50771463267363 68.01010065852763 0.1999999999994131
    vertex 121.49007654246866 71.0782490059495 0.1999999999994131
    vertex 114.9900765424687 67.81029981351838 0.1999999999994131
  endloop
endfacet
facet normal 0.0 0.0 -1.0
  outer loop
    vertex 114.9900765424687 67.81029981351838 0.1999999999994131
    vertex 121.49007654246866 71.0782490059495 0.1999999999994131
    vertex 115.40429010484175 67.49246256832261 0.1999999999994131
  endloop
endfacet
facet normal 0.0 0.0 -1.0
  outer loop
    vertex 115.40429010484175 67.49246256832261 0.1999999999994131
    vertex 121.49007654246866 71.0782490059495 0.1999999999994131
    vertex 115.7221273500377 67.07824900594952 0.1999999999994131
  endloop
endfacet
facet normal 0.0 0.0 -1.0
  outer loop
    vertex 115.7221273500377 67.07824900594952 0.1999999999994131
    vertex 121.49007654246866 71.0782490059495 0.1999999999994131
    vertex 115.92192819504682 66.59588709615456 0.1999999999994131
  endloop
endfacet
facet normal 0.0 0.0 -1.0
  outer loop
    vertex 115.92192819504682 66.59588709615456 0.1999999999994131
    vertex 121.49007654246866 71.0782490059495 0.1999999999994131
    vertex 115.99007654246883 66.07824900594952 0.1999999999994131
  endloop
endfacet
facet normal 0.0 0.0 -1.0
  outer loop
    vertex 106.49007654246873 61.07824900594952 0.1999999999994131
    vertex 113.47243845226367 64.14639735337137 0.1999999999994131
    vertex 121.49007654246866 61.07824900594952 0.1999999999994131
  endloop
endfacet
facet normal 0.0 0.0 -1.0
  outer loop
    vertex 113.47243845226367 64.14639735337137 0.1999999999994131
    vertex 106.49007654246873 61.07824900594952 0.1999999999994131
    vertex 112.99007654246878 64.34619819838062 0.1999999999994131
  endloop
endfacet
facet normal 0.0 0.0 -1.0
  outer loop
    vertex 112.99007654246878 64.34619819838062 0.1999999999994131
    vertex 106.49007654246873 61.07824900594952 0.1999999999994131
    vertex 112.57586298009574 64.66403544357644 0.1999999999994131
  endloop
endfacet
facet normal 0.0 0.0 -1.0
  outer loop
    vertex 112.57586298009574 64.66403544357644 0.1999999999994131
    vertex 106.49007654246873 61.07824900594952 0.1999999999994131
    vertex 112.25802573489979 65.07824900594952 0.1999999999994131
  endloop
endfacet
facet normal 0.0 0.0 -1.0
  outer loop
    vertex 112.25802573489979 65.07824900594952 0.1999999999994131
    vertex 106.49007654246873 61.07824900594952 0.1999999999994131
    vertex 109.49007654246869 71.0782490059495 0.1999999999994131
  endloop
endfacet
facet normal 0.0 0.0 -1.0
  outer loop
    vertex 109.49007654246869 71.0782490059495 0.1999999999994131
    vertex 106.49007654246873 61.07824900594952 0.1999999999994131
    vertex 109.49007654246869 153.57824900594954 0.1999999999994131
  endloop
endfacet
facet normal 0.0 0.0 -1.0
  outer loop
    vertex 112.25802573489979 65.07824900594952 0.1999999999994131
    vertex 109.49007654246869 71.0782490059495 0.1999999999994131
    vertex 112.05822488989067 65.56061091574446 0.1999999999994131
  endloop
endfacet
facet normal 0.0 0.0 -1.0
  outer loop
    vertex 112.05822488989067 65.56061091574446 0.1999999999994131
    vertex 109.49007654246869 71.0782490059495 0.1999999999994131
    vertex 111.99007654246866 66.07824900594952 0.1999999999994131
  endloop
endfacet
facet normal 0.0 0.0 -1.0
  outer loop
    vertex 121.49007654246866 61.07824900594952 0.1999999999994131
    vertex 113.47243845226367 64.14639735337137 0.1999999999994131
    vertex 113.99007654246856 64.07824900594952 0.1999999999994131
  endloop
endfacet
facet normal 0.0 0.0 -1.0
  outer loop
    vertex 121.49007654246866 61.07824900594952 0.1999999999994131
    vertex 113.99007654246856 64.07824900594952 0.1999999999994131
    vertex 114.50771463267363 64.14639735337137 0.1999999999994131
  endloop
endfacet
facet normal 0.0 0.0 -1.0
  outer loop
    vertex 121.49007654246866 61.07824900594952 0.1999999999994131
    vertex 114.50771463267363 64.14639735337137 0.1999999999994131
    vertex 114.9900765424687 64.34619819838062 0.1999999999994131
  endloop
endfacet
facet normal 0.0 0.0 -1.0
  outer loop
    vertex 121.49007654246866 61.07824900594952 0.1999999999994131
    vertex 114.9900765424687 64.34619819838062 0.1999999999994131
    vertex 115.40429010484175 64.66403544357641 0.1999999999994131
  endloop
endfacet
facet normal 0.0 0.0 -1.0
  outer loop
    vertex 121.49007654246866 61.07824900594952 0.1999999999994131
    vertex 115.40429010484175 64.66403544357641 0.1999999999994131
    vertex 115.7221273500377 65.07824900594952 0.1999999999994131
  endloop
endfacet
facet normal 0.0 0.0 -1.0
  outer loop
    vertex 121.49007654246866 61.07824900594952 0.1999999999994131
    vertex 115.7221273500377 65.07824900594952 0.1999999999994131
    vertex 115.92192819504682 65.56061091574446 0.1999999999994131
  endloop
endfacet
facet normal 0.0 0.0 -1.0
  outer loop
    vertex 121.49007654246866 61.07824900594952 0.1999999999994131
    vertex 115.92192819504682 65.56061091574446 0.1999999999994131
    vertex 115.99007654246883 66.07824900594952 0.1999999999994131
  endloop
endfacet
facet normal 0.0 0.0 -1.0
  outer loop
    vertex 121.49007654246866 61.07824900594952 0.1999999999994131
    vertex 115.99007654246883 66.07824900594952 0.1999999999994131
    vertex 121.49007654246866 71.0782490059495 0.1999999999994131
  endloop
endfacet
facet normal -0.0 -0.0 1.0
  outer loop
    vertex 106.49007654246873 61.078249005949495 24.499999999999392
    vertex 111.99007654246866 66.07824900594952 24.499999999999392
    vertex 106.49007654246873 163.57824900594952 24.499999999999392
  endloop
endfacet
facet normal -0.0 -0.0 1.0
  outer loop
    vertex 111.99007654246866 66.07824900594952 24.499999999999392
    vertex 106.49007654246873 61.078249005949495 24.499999999999392
    vertex 112.05822488989067 65.56061091574446 24.499999999999392
  endloop
endfacet
facet normal -0.0 -0.0 1.0
  outer loop
    vertex 112.05822488989067 65.56061091574446 24.499999999999392
    vertex 106.49007654246873 61.078249005949495 24.499999999999392
    vertex 112.25802573489979 65.07824900594952 24.499999999999392
  endloop
endfacet
facet normal -0.0 -0.0 1.0
  outer loop
    vertex 112.25802573489979 65.07824900594952 24.499999999999392
    vertex 106.49007654246873 61.078249005949495 24.499999999999392
    vertex 112.57586298009574 64.66403544357644 24.499999999999392
  endloop
endfacet
facet normal -0.0 -0.0 1.0
  outer loop
    vertex 112.57586298009574 64.66403544357644 24.499999999999392
    vertex 106.49007654246873 61.078249005949495 24.499999999999392
    vertex 112.99007654246878 64.34619819838062 24.499999999999392
  endloop
endfacet
facet normal -0.0 -0.0 1.0
  outer loop
    vertex 112.99007654246878 64.34619819838062 24.499999999999392
    vertex 106.49007654246873 61.078249005949495 24.499999999999392
    vertex 113.47243845226367 64.14639735337137 24.499999999999392
  endloop
endfacet
facet normal -0.0 -0.0 1.0
  outer loop
    vertex 113.47243845226367 64.14639735337137 24.499999999999392
    vertex 106.49007654246873 61.078249005949495 24.499999999999392
    vertex 121.49007654246866 61.078249005949495 24.499999999999392
  endloop
endfacet
facet normal -0.0 -0.0 1.0
  outer loop
    vertex 113.47243845226367 64.14639735337137 24.499999999999392
    vertex 121.49007654246866 61.078249005949495 24.499999999999392
    vertex 113.99007654246856 64.07824900594952 24.499999999999392
  endloop
endfacet
facet normal -0.0 -0.0 1.0
  outer loop
    vertex 113.99007654246856 64.07824900594952 24.499999999999392
    vertex 121.49007654246866 61.078249005949495 24.499999999999392
    vertex 114.50771463267363 64.14639735337137 24.499999999999392
  endloop
endfacet
facet normal -0.0 -0.0 1.0
  outer loop
    vertex 114.50771463267363 64.14639735337137 24.499999999999392
    vertex 121.49007654246866 61.078249005949495 24.499999999999392
    vertex 114.9900765424687 64.34619819838062 24.499999999999392
  endloop
endfacet
facet normal -0.0 -0.0 1.0
  outer loop
    vertex 114.9900765424687 64.34619819838062 24.499999999999392
    vertex 121.49007654246866 61.078249005949495 24.499999999999392
    vertex 115.40429010484175 64.66403544357641 24.499999999999392
  endloop
endfacet
facet normal -0.0 -0.0 1.0
  outer loop
    vertex 115.40429010484175 64.66403544357641 24.499999999999392
    vertex 121.49007654246866 61.078249005949495 24.499999999999392
    vertex 115.7221273500377 65.07824900594952 24.499999999999392
  endloop
endfacet
facet normal -0.0 -0.0 1.0
  outer loop
    vertex 115.7221273500377 65.07824900594952 24.499999999999392
    vertex 121.49007654246866 61.078249005949495 24.499999999999392
    vertex 115.92192819504682 65.56061091574446 24.499999999999392
  endloop
endfacet
facet normal -0.0 -0.0 1.0
  outer loop
    vertex 115.92192819504682 65.56061091574446 24.499999999999392
    vertex 121.49007654246866 61.078249005949495 24.499999999999392
    vertex 115.99007654246883 66.07824900594952 24.499999999999392
  endloop
endfacet
facet normal -0.0 -0.0 1.0
  outer loop
    vertex 115.99007654246883 66.07824900594952 24.499999999999392
    vertex 121.49007654246866 61.078249005949495 24.499999999999392
    vertex 115.99007654246883 158.5782490059495 24.499999999999392
  endloop
endfacet
facet normal -0.0 -0.0 1.0
  outer loop
    vertex 106.49007654246873 163.57824900594952 24.499999999999392
    vertex 113.47243845226367 160.51010065852765 24.499999999999392
    vertex 121.49007654246866 163.57824900594952 24.499999999999392
  endloop
endfacet
facet normal -0.0 -0.0 1.0
  outer loop
    vertex 113.47243845226367 160.51010065852765 24.499999999999392
    vertex 106.49007654246873 163.57824900594952 24.499999999999392
    vertex 112.99007654246878 160.31029981351836 24.499999999999392
  endloop
endfacet
facet normal -0.0 -0.0 1.0
  outer loop
    vertex 112.99007654246878 160.31029981351836 24.499999999999392
    vertex 106.49007654246873 163.57824900594952 24.499999999999392
    vertex 112.57586298009574 159.99246256832257 24.499999999999392
  endloop
endfacet
facet normal -0.0 -0.0 1.0
  outer loop
    vertex 112.57586298009574 159.99246256832257 24.499999999999392
    vertex 106.49007654246873 163.57824900594952 24.499999999999392
    vertex 112.25802573489979 159.57824900594952 24.499999999999392
  endloop
endfacet
facet normal -0.0 -0.0 1.0
  outer loop
    vertex 112.25802573489979 159.57824900594952 24.499999999999392
    vertex 106.49007654246873 163.57824900594952 24.499999999999392
    vertex 112.05822488989067 159.09588709615454 24.499999999999392
  endloop
endfacet
facet normal -0.0 -0.0 1.0
  outer loop
    vertex 112.05822488989067 159.09588709615454 24.499999999999392
    vertex 106.49007654246873 163.57824900594952 24.499999999999392
    vertex 111.99007654246866 158.5782490059495 24.499999999999392
  endloop
endfacet
facet normal -0.0 -0.0 1.0
  outer loop
    vertex 111.99007654246866 158.5782490059495 24.499999999999392
    vertex 106.49007654246873 163.57824900594952 24.499999999999392
    vertex 111.99007654246866 66.07824900594952 24.499999999999392
  endloop
endfacet
facet normal -0.0 -0.0 1.0
  outer loop
    vertex 121.49007654246866 163.57824900594952 24.499999999999392
    vertex 113.47243845226367 160.51010065852765 24.499999999999392
    vertex 113.99007654246856 160.57824900594946 24.499999999999392
  endloop
endfacet
facet normal -0.0 -0.0 1.0
  outer loop
    vertex 121.49007654246866 163.57824900594952 24.499999999999392
    vertex 113.99007654246856 160.57824900594946 24.499999999999392
    vertex 114.50771463267363 160.51010065852765 24.499999999999392
  endloop
endfacet
facet normal -0.0 -0.0 1.0
  outer loop
    vertex 121.49007654246866 163.57824900594952 24.499999999999392
    vertex 114.50771463267363 160.51010065852765 24.499999999999392
    vertex 114.9900765424687 160.31029981351836 24.499999999999392
  endloop
endfacet
facet normal -0.0 -0.0 1.0
  outer loop
    vertex 121.49007654246866 163.57824900594952 24.499999999999392
    vertex 114.9900765424687 160.31029981351836 24.499999999999392
    vertex 115.40429010484175 159.99246256832257 24.499999999999392
  endloop
endfacet
facet normal -0.0 -0.0 1.0
  outer loop
    vertex 121.49007654246866 163.57824900594952 24.499999999999392
    vertex 115.40429010484175 159.99246256832257 24.499999999999392
    vertex 115.7221273500377 159.57824900594952 24.499999999999392
  endloop
endfacet
facet normal -0.0 -0.0 1.0
  outer loop
    vertex 121.49007654246866 163.57824900594952 24.499999999999392
    vertex 115.7221273500377 159.57824900594952 24.499999999999392
    vertex 115.92192819504682 159.09588709615454 24.499999999999392
  endloop
endfacet
facet normal -0.0 -0.0 1.0
  outer loop
    vertex 121.49007654246866 163.57824900594952 24.499999999999392
    vertex 115.92192819504682 159.09588709615454 24.499999999999392
    vertex 115.99007654246883 158.5782490059495 24.499999999999392
  endloop
endfacet
facet normal -0.0 -0.0 1.0
  outer loop
    vertex 121.49007654246866 163.57824900594952 24.499999999999392
    vertex 115.99007654246883 158.5782490059495 24.499999999999392
    vertex 121.49007654246866 61.078249005949495 24.499999999999392
  endloop
endfacet
facet normal -0.0 -0.0 1.0
  outer loop
    vertex 112.05822488989067 66.59588709615456 24.499999999999392
    vertex 111.99007654246866 158.5782490059495 24.499999999999392
    vertex 111.99007654246866 66.07824900594952 24.499999999999392
  endloop
endfacet
facet normal -0.0 -0.0 1.0
  outer loop
    vertex 111.99007654246866 158.5782490059495 24.499999999999392
    vertex 112.05822488989067 66.59588709615456 24.499999999999392
    vertex 112.05822488989067 158.06061091574446 24.499999999999392
  endloop
endfacet
facet normal -0.0 -0.0 1.0
  outer loop
    vertex 112.05822488989067 158.06061091574446 24.499999999999392
    vertex 112.05822488989067 66.59588709615456 24.499999999999392
    vertex 112.25802573489979 67.07824900594952 24.499999999999392
  endloop
endfacet
facet normal -0.0 -0.0 1.0
  outer loop
    vertex 112.05822488989067 158.06061091574446 24.499999999999392
    vertex 112.25802573489979 67.07824900594952 24.499999999999392
    vertex 112.25802573489979 157.57824900594952 24.499999999999392
  endloop
endfacet
facet normal -0.0 -0.0 1.0
  outer loop
    vertex 112.25802573489979 157.57824900594952 24.499999999999392
    vertex 112.25802573489979 67.07824900594952 24.499999999999392
    vertex 112.57586298009574 67.49246256832261 24.499999999999392
  endloop
endfacet
facet normal -0.0 -0.0 1.0
  outer loop
    vertex 112.25802573489979 157.57824900594952 24.499999999999392
    vertex 112.57586298009574 67.49246256832261 24.499999999999392
    vertex 112.57586298009574 157.16403544357638 24.499999999999392
  endloop
endfacet
facet normal -0.0 -0.0 1.0
  outer loop
    vertex 112.57586298009574 157.16403544357638 24.499999999999392
    vertex 112.57586298009574 67.49246256832261 24.499999999999392
    vertex 112.99007654246878 67.81029981351838 24.499999999999392
  endloop
endfacet
facet normal -0.0 -0.0 1.0
  outer loop
    vertex 112.57586298009574 157.16403544357638 24.499999999999392
    vertex 112.99007654246878 67.81029981351838 24.499999999999392
    vertex 112.99007654246878 156.84619819838062 24.499999999999392
  endloop
endfacet
facet normal -0.0 -0.0 1.0
  outer loop
    vertex 112.99007654246878 156.84619819838062 24.499999999999392
    vertex 112.99007654246878 67.81029981351838 24.499999999999392
    vertex 113.47243845226367 68.01010065852766 24.499999999999392
  endloop
endfacet
facet normal -0.0 -0.0 1.0
  outer loop
    vertex 112.99007654246878 156.84619819838062 24.499999999999392
    vertex 113.47243845226367 68.01010065852766 24.499999999999392
    vertex 113.47243845226367 156.64639735337136 24.499999999999392
  endloop
endfacet
facet normal -0.0 -0.0 1.0
  outer loop
    vertex 113.47243845226367 156.64639735337136 24.499999999999392
    vertex 113.47243845226367 68.01010065852766 24.499999999999392
    vertex 113.99007654246856 68.0782490059495 24.499999999999392
  endloop
endfacet
facet normal -0.0 -0.0 1.0
  outer loop
    vertex 113.47243845226367 156.64639735337136 24.499999999999392
    vertex 113.99007654246856 68.0782490059495 24.499999999999392
    vertex 113.99007654246856 156.5782490059495 24.499999999999392
  endloop
endfacet
facet normal -0.0 -0.0 1.0
  outer loop
    vertex 113.99007654246856 156.5782490059495 24.499999999999392
    vertex 113.99007654246856 68.0782490059495 24.499999999999392
    vertex 114.50771463267363 68.01010065852763 24.499999999999392
  endloop
endfacet
facet normal -0.0 -0.0 1.0
  outer loop
    vertex 113.99007654246856 156.5782490059495 24.499999999999392
    vertex 114.50771463267363 68.01010065852763 24.499999999999392
    vertex 114.50771463267363 156.64639735337136 24.499999999999392
  endloop
endfacet
facet normal -0.0 -0.0 1.0
  outer loop
    vertex 114.50771463267363 156.64639735337136 24.499999999999392
    vertex 114.50771463267363 68.01010065852763 24.499999999999392
    vertex 114.9900765424687 67.81029981351838 24.499999999999392
  endloop
endfacet
facet normal -0.0 -0.0 1.0
  outer loop
    vertex 114.50771463267363 156.64639735337136 24.499999999999392
    vertex 114.9900765424687 67.81029981351838 24.499999999999392
    vertex 114.9900765424687 156.84619819838062 24.499999999999392
  endloop
endfacet
facet normal -0.0 -0.0 1.0
  outer loop
    vertex 114.9900765424687 156.84619819838062 24.499999999999392
    vertex 114.9900765424687 67.81029981351838 24.499999999999392
    vertex 115.40429010484175 67.49246256832261 24.499999999999392
  endloop
endfacet
facet normal -0.0 -0.0 1.0
  outer loop
    vertex 114.9900765424687 156.84619819838062 24.499999999999392
    vertex 115.40429010484175 67.49246256832261 24.499999999999392
    vertex 115.40429010484175 157.16403544357638 24.499999999999392
  endloop
endfacet
facet normal -0.0 -0.0 1.0
  outer loop
    vertex 115.40429010484175 157.16403544357638 24.499999999999392
    vertex 115.40429010484175 67.49246256832261 24.499999999999392
    vertex 115.7221273500377 67.07824900594952 24.499999999999392
  endloop
endfacet
facet normal -0.0 -0.0 1.0
  outer loop
    vertex 115.40429010484175 157.16403544357638 24.499999999999392
    vertex 115.7221273500377 67.07824900594952 24.499999999999392
    vertex 115.7221273500377 157.57824900594952 24.499999999999392
  endloop
endfacet
facet normal -0.0 -0.0 1.0
  outer loop
    vertex 115.7221273500377 157.57824900594952 24.499999999999392
    vertex 115.7221273500377 67.07824900594952 24.499999999999392
    vertex 115.92192819504682 66.59588709615456 24.499999999999392
  endloop
endfacet
facet normal -0.0 -0.0 1.0
  outer loop
    vertex 115.7221273500377 157.57824900594952 24.499999999999392
    vertex 115.92192819504682 66.59588709615456 24.499999999999392
    vertex 115.92192819504682 158.06061091574446 24.499999999999392
  endloop
endfacet
facet normal -0.0 -0.0 1.0
  outer loop
    vertex 115.92192819504682 158.06061091574446 24.499999999999392
    vertex 115.92192819504682 66.59588709615456 24.499999999999392
    vertex 115.99007654246883 66.07824900594952 24.499999999999392
  endloop
endfacet
facet normal -0.0 -0.0 1.0
  outer loop
    vertex 115.92192819504682 158.06061091574446 24.499999999999392
    vertex 115.99007654246883 66.07824900594952 24.499999999999392
    vertex 115.99007654246883 158.5782490059495 24.499999999999392
  endloop
endfacet
facet normal 0.0 -1.0 0.0
  outer loop
    vertex 121.49007654246866 153.57824900594954 19.499999999999353
    vertex 109.49007654246869 153.57824900594954 0.1999999999994131
    vertex 121.49007654246866 153.57824900594954 0.1999999999994131
  endloop
endfacet
facet normal 0.0 -1.0 0.0
  outer loop
    vertex 109.49007654246869 153.57824900594954 0.1999999999994131
    vertex 121.49007654246866 153.57824900594954 19.499999999999353
    vertex 109.49007654246869 153.57824900594954 19.499999999999353
  endloop
endfacet
endsolid ground station
