solid CATIA STL
  facet normal  0.000000e+000  0.000000e+000  1.000000e+000
    outer loop
      vertex  1.802000e+002 -7.950000e+001  1.100000e+001
      vertex  1.802000e+002 -3.450000e+001  1.100000e+001
      vertex  1.702000e+002 -7.950000e+001  1.100000e+001
    endloop
  endfacet
  facet normal  0.000000e+000  0.000000e+000  1.000000e+000
    outer loop
      vertex  1.702000e+002 -7.950000e+001  1.100000e+001
      vertex  1.802000e+002 -3.450000e+001  1.100000e+001
      vertex  1.702000e+002 -3.450000e+001  1.100000e+001
    endloop
  endfacet
  facet normal  0.000000e+000  0.000000e+000 -1.000000e+000
    outer loop
      vertex  1.802000e+002 -7.950000e+001  8.000000e+000
      vertex  1.702000e+002 -7.950000e+001  8.000000e+000
      vertex  1.802000e+002 -3.450000e+001  8.000000e+000
    endloop
  endfacet
  facet normal  -0.000000e+000  0.000000e+000 -1.000000e+000
    outer loop
      vertex  1.802000e+002 -3.450000e+001  8.000000e+000
      vertex  1.702000e+002 -7.950000e+001  8.000000e+000
      vertex  1.702000e+002 -3.450000e+001  8.000000e+000
    endloop
  endfacet
  facet normal -1.000000e+000  -0.000000e+000  0.000000e+000
    outer loop
      vertex  1.702000e+002 -7.950000e+001  1.100000e+001
      vertex  1.702000e+002 -3.450000e+001  1.100000e+001
      vertex  1.702000e+002 -7.950000e+001  8.000000e+000
    endloop
  endfacet
  facet normal -1.000000e+000  0.000000e+000  0.000000e+000
    outer loop
      vertex  1.702000e+002 -7.950000e+001  8.000000e+000
      vertex  1.702000e+002 -3.450000e+001  1.100000e+001
      vertex  1.702000e+002 -3.450000e+001  8.000000e+000
    endloop
  endfacet
  facet normal  0.000000e+000  1.000000e+000  -0.000000e+000
    outer loop
      vertex  1.802000e+002 -3.450000e+001  1.100000e+001
      vertex  1.802000e+002 -3.450000e+001  8.000000e+000
      vertex  1.702000e+002 -3.450000e+001  1.100000e+001
    endloop
  endfacet
  facet normal  0.000000e+000  1.000000e+000  0.000000e+000
    outer loop
      vertex  1.702000e+002 -3.450000e+001  1.100000e+001
      vertex  1.802000e+002 -3.450000e+001  8.000000e+000
      vertex  1.702000e+002 -3.450000e+001  8.000000e+000
    endloop
  endfacet
  facet normal  1.000000e+000  -0.000000e+000  0.000000e+000
    outer loop
      vertex  1.802000e+002 -3.450000e+001  1.100000e+001
      vertex  1.802000e+002 -7.950000e+001  1.100000e+001
      vertex  1.802000e+002 -3.450000e+001  8.000000e+000
    endloop
  endfacet
  facet normal  1.000000e+000  0.000000e+000  0.000000e+000
    outer loop
      vertex  1.802000e+002 -3.450000e+001  8.000000e+000
      vertex  1.802000e+002 -7.950000e+001  1.100000e+001
      vertex  1.802000e+002 -7.950000e+001  8.000000e+000
    endloop
  endfacet
  facet normal  0.000000e+000 -1.000000e+000  0.000000e+000
    outer loop
      vertex  1.702000e+002 -7.950000e+001  1.100000e+001
      vertex  1.702000e+002 -7.950000e+001  8.000000e+000
      vertex  1.802000e+002 -7.950000e+001  1.100000e+001
    endloop
  endfacet
  facet normal  0.000000e+000 -1.000000e+000  -0.000000e+000
    outer loop
      vertex  1.802000e+002 -7.950000e+001  1.100000e+001
      vertex  1.702000e+002 -7.950000e+001  8.000000e+000
      vertex  1.802000e+002 -7.950000e+001  8.000000e+000
    endloop
  endfacet
endsolid CATIA STL
